<svg xmlns="http://www.w3.org/2000/svg" width="518" height="128" viewBox="0 0 518 128" fill="none"><path fill="#fff" fill-rule="evenodd" d="M471.50 127.01C464.89 125.96 457.80 123.48 450.75 119.76L445.00 116.72L445.00 104.36C445.00 90.50 445.38 89.90 451.38 94.48C457.42 99.08 467.74 103.82 473.22 104.51C489.75 106.57 498.09 93.62 486.85 83.36C485.56 82.19 478.24 77.52 470.59 72.98C454.87 63.66 449.02 58.42 445.18 50.20C442.88 45.28 442.52 43.19 442.51 34.90C442.50 25.89 442.72 24.88 446.00 18.44C452.44 5.82 462.52 0.46 479.50 0.62C490.78 0.72 499.10 2.99 507.25 8.18L512.00 11.21L512.00 23.60C512.00 34.91 511.84 36.00 510.19 36.00C509.19 36.00 507.13 34.70 505.61 33.11C498.52 25.71 480.14 20.81 473.11 24.44C468.54 26.80 466.61 31.67 468.26 36.66C469.70 41.04 473.72 44.32 490.12 54.49C503.59 62.83 510.19 69.04 513.80 76.73C516.20 81.85 516.50 83.68 516.50 93.00C516.50 103.17 516.39 103.71 512.92 110.00C506.89 120.96 497.71 126.27 483.00 127.33C479.43 127.59 474.25 127.45 471.50 127.01ZM24.81 125.55C15.73 123.01 6.94 115.31 2.71 106.22C0.63 101.74 0.50 99.94 0.20 71.25L-0.11 41.00L63.00 41.00L126.11 41.00L125.80 70.75L125.50 100.50L122.86 106.12C119.16 114.02 113.87 119.45 106.17 123.24L99.55 126.50L64.52 126.68C38.14 126.82 28.34 126.54 24.81 125.55ZM144.00 63.93L144.00 1.86L171.75 2.18L199.50 2.50L205.73 5.38C220.56 12.23 228.14 28.48 225.11 46.94C223.34 57.71 218.55 65.43 209.06 72.82L206.63 74.72L216.37 98.43C221.74 111.47 225.98 122.89 225.80 123.82C225.52 125.27 223.75 125.54 212.85 125.78L200.22 126.06L197.60 118.78C196.16 114.78 192.37 104.08 189.18 95.00L183.39 78.50L176.20 78.21L169.00 77.91L169.00 101.96L169.00 126.00L156.50 126.00L144.00 126.00L144.00 63.93ZM236.00 114.50L236.00 103.00L255.00 103.00L274.00 103.00L274.00 89.13L274.00 75.26L269.25 73.88C266.36 73.04 259.70 72.50 252.25 72.50L240.00 72.50L240.00 61.25L240.00 50.00L248.25 50.01C253.02 50.01 260.01 50.86 264.81 52.01C269.39 53.10 273.32 54.00 273.56 54.00C273.80 54.00 274.00 47.48 274.00 39.50L274.00 25.00L255.00 25.00L236.00 25.00L236.00 13.50L236.00 2.00L267.50 2.00L299.00 2.00L299.00 64.00L299.00 126.00L267.50 126.00L236.00 126.00L236.00 114.50ZM308.00 64.00L308.00 2.00L339.50 2.00L371.00 2.00L371.00 13.50L371.00 25.00L352.00 25.00L333.00 25.00L333.00 39.50C333.00 47.48 333.36 54.00 333.81 54.00C334.25 54.00 338.25 53.08 342.70 51.96C348.43 50.51 353.20 50.00 359.14 50.21L367.50 50.50L367.79 59.50C368.25 73.43 369.18 72.50 354.79 72.50C347.30 72.50 340.64 73.04 337.75 73.88L333.00 75.26L333.00 89.13L333.00 103.00L352.00 103.00L371.00 103.00L371.00 114.50L371.00 126.00L339.50 126.00L308.00 126.00L308.00 64.00ZM381.00 64.00L381.00 2.00L393.50 2.00L406.00 2.00L406.00 52.50L406.00 103.00L422.50 103.00L439.00 103.00L439.00 114.50L439.00 126.00L410.00 126.00L381.00 126.00L381.00 64.00ZM69.36 87.62C85.25 78.94 87.44 76.84 84.77 72.79C83.95 71.53 76.50 66.79 68.24 62.25C45.76 49.91 46.00 49.76 46.00 75.51C46.00 93.36 46.06 93.93 48.22 95.44C51.12 97.47 51.82 97.21 69.36 87.62ZM193.10 54.73C199.47 50.47 201.92 40.52 198.56 32.49C196.09 26.57 192.15 25.01 179.75 25.00L169.00 25.00L169.00 41.00L169.00 57.00L179.35 57.00C188.45 57.00 190.12 56.72 193.10 54.73ZM1.00 27.70C1.00 24.72 5.24 16.26 8.45 12.82C9.83 11.34 12.57 8.90 14.55 7.40L18.14 4.65L30.82 17.33L43.49 30.00L22.25 30.00L1.00 30.00L1.00 27.70ZM45.62 15.77L31.73 1.50L42.06 1.21L52.40 0.93L66.20 14.70C73.79 22.27 80.00 28.82 80.00 29.24C80.00 29.66 75.39 30.01 69.75 30.02L59.50 30.05L45.62 15.77ZM82.99 15.43L68.50 0.87L84.50 1.24C98.25 1.55 101.16 1.91 105.22 3.75C112.12 6.90 118.85 13.56 122.15 20.50C126.81 30.31 127.17 30.00 111.24 30.00L97.47 30.00L82.99 15.43Z"/></svg>